<mxfile host="app.diagrams.net" agent="Mozilla/5.0 (Windows NT 10.0; Win64; x64) AppleWebKit/537.36 (KHTML, like Gecko) Chrome/136.0.0.0 YaBrowser/25.6.0.0 Safari/537.36" version="27.1.4">
  <diagram name="Страница — 1" id="40a0sj2jKMKBGf407i6n">
    <mxGraphModel dx="815" dy="479" grid="0" gridSize="10" guides="1" tooltips="1" connect="1" arrows="1" fold="1" page="1" pageScale="1" pageWidth="1169" pageHeight="827" math="0" shadow="0">
      <root>
        <mxCell id="0" />
        <mxCell id="1" parent="0" />
        <mxCell id="0GEpHLOyCdUX4QxZ5aWK-5" style="edgeStyle=orthogonalEdgeStyle;rounded=0;orthogonalLoop=1;jettySize=auto;html=1;exitX=0.5;exitY=1;exitDx=0;exitDy=0;entryX=0.75;entryY=0;entryDx=0;entryDy=0;" edge="1" parent="1" source="u0V1JA9TrNFjZntQZSgD-2" target="u0V1JA9TrNFjZntQZSgD-48">
          <mxGeometry relative="1" as="geometry" />
        </mxCell>
        <mxCell id="u0V1JA9TrNFjZntQZSgD-2" value="Контроллер замка" style="rounded=0;whiteSpace=wrap;html=1;" parent="1" vertex="1">
          <mxGeometry x="450" y="360" width="120" height="60" as="geometry" />
        </mxCell>
        <mxCell id="u0V1JA9TrNFjZntQZSgD-3" value="Пользователь" style="rounded=0;whiteSpace=wrap;html=1;" parent="1" vertex="1">
          <mxGeometry x="160" y="250" width="120" height="60" as="geometry" />
        </mxCell>
        <mxCell id="u0V1JA9TrNFjZntQZSgD-7" value="Чтение информации с ИК-датчика" style="rounded=1;whiteSpace=wrap;html=1;" parent="1" vertex="1">
          <mxGeometry x="660" y="240" width="120" height="60" as="geometry" />
        </mxCell>
        <mxCell id="u0V1JA9TrNFjZntQZSgD-8" value="Обработка информации с ИК-датчика" style="rounded=1;whiteSpace=wrap;html=1;" parent="1" vertex="1">
          <mxGeometry x="660" y="360" width="120" height="60" as="geometry" />
        </mxCell>
        <mxCell id="u0V1JA9TrNFjZntQZSgD-10" value="Команды для взаимодействия с устройством" style="text;html=1;align=center;verticalAlign=middle;whiteSpace=wrap;rounded=0;" parent="1" vertex="1">
          <mxGeometry x="240" y="320" width="60" height="30" as="geometry" />
        </mxCell>
        <mxCell id="u0V1JA9TrNFjZntQZSgD-15" value="" style="endArrow=classic;html=1;rounded=0;exitX=0.5;exitY=1;exitDx=0;exitDy=0;entryX=0.5;entryY=0;entryDx=0;entryDy=0;" parent="1" source="u0V1JA9TrNFjZntQZSgD-7" target="u0V1JA9TrNFjZntQZSgD-8" edge="1">
          <mxGeometry width="50" height="50" relative="1" as="geometry">
            <mxPoint x="900" y="320" as="sourcePoint" />
            <mxPoint x="950" y="270" as="targetPoint" />
          </mxGeometry>
        </mxCell>
        <mxCell id="u0V1JA9TrNFjZntQZSgD-16" value="Сигнал" style="text;html=1;align=center;verticalAlign=middle;whiteSpace=wrap;rounded=0;rotation=-90;" parent="1" vertex="1">
          <mxGeometry x="680" y="320" width="60" height="20" as="geometry" />
        </mxCell>
        <mxCell id="u0V1JA9TrNFjZntQZSgD-17" value="" style="endArrow=classic;html=1;rounded=0;entryX=1;entryY=0.5;entryDx=0;entryDy=0;exitX=0;exitY=0.5;exitDx=0;exitDy=0;" parent="1" source="u0V1JA9TrNFjZntQZSgD-8" target="u0V1JA9TrNFjZntQZSgD-2" edge="1">
          <mxGeometry width="50" height="50" relative="1" as="geometry">
            <mxPoint x="760" y="430" as="sourcePoint" />
            <mxPoint x="810" y="380" as="targetPoint" />
          </mxGeometry>
        </mxCell>
        <mxCell id="u0V1JA9TrNFjZntQZSgD-18" value="Команда" style="text;html=1;align=center;verticalAlign=middle;whiteSpace=wrap;rounded=0;" parent="1" vertex="1">
          <mxGeometry x="590" y="370" width="60" height="20" as="geometry" />
        </mxCell>
        <mxCell id="u0V1JA9TrNFjZntQZSgD-19" value="Чтение данных с клавиатуры" style="rounded=1;whiteSpace=wrap;html=1;" parent="1" vertex="1">
          <mxGeometry x="160" y="150" width="120" height="60" as="geometry" />
        </mxCell>
        <mxCell id="u0V1JA9TrNFjZntQZSgD-22" value="" style="endArrow=classic;html=1;rounded=0;entryX=0.5;entryY=1;entryDx=0;entryDy=0;exitX=0.5;exitY=0;exitDx=0;exitDy=0;" parent="1" source="u0V1JA9TrNFjZntQZSgD-3" target="u0V1JA9TrNFjZntQZSgD-19" edge="1">
          <mxGeometry width="50" height="50" relative="1" as="geometry">
            <mxPoint x="280" y="290" as="sourcePoint" />
            <mxPoint x="330" y="240" as="targetPoint" />
          </mxGeometry>
        </mxCell>
        <mxCell id="u0V1JA9TrNFjZntQZSgD-23" value="PIN-код" style="text;html=1;align=center;verticalAlign=middle;whiteSpace=wrap;rounded=0;rotation=0;" parent="1" vertex="1">
          <mxGeometry x="220" y="225" width="50" height="15" as="geometry" />
        </mxCell>
        <mxCell id="u0V1JA9TrNFjZntQZSgD-31" value="Проверка кода доступа" style="rounded=1;whiteSpace=wrap;html=1;" parent="1" vertex="1">
          <mxGeometry x="340" y="150" width="120" height="60" as="geometry" />
        </mxCell>
        <mxCell id="u0V1JA9TrNFjZntQZSgD-32" value="" style="endArrow=classic;html=1;rounded=0;exitX=1;exitY=0.5;exitDx=0;exitDy=0;entryX=0;entryY=0.5;entryDx=0;entryDy=0;edgeStyle=orthogonalEdgeStyle;" parent="1" source="u0V1JA9TrNFjZntQZSgD-19" target="u0V1JA9TrNFjZntQZSgD-31" edge="1">
          <mxGeometry width="50" height="50" relative="1" as="geometry">
            <mxPoint x="605" y="125" as="sourcePoint" />
            <mxPoint x="765" y="55" as="targetPoint" />
          </mxGeometry>
        </mxCell>
        <mxCell id="u0V1JA9TrNFjZntQZSgD-36" value="" style="endArrow=classic;html=1;rounded=0;exitX=0;exitY=0.5;exitDx=0;exitDy=0;entryX=1;entryY=0.5;entryDx=0;entryDy=0;edgeStyle=orthogonalEdgeStyle;" parent="1" source="u0V1JA9TrNFjZntQZSgD-28" target="u0V1JA9TrNFjZntQZSgD-31" edge="1">
          <mxGeometry width="50" height="50" relative="1" as="geometry">
            <mxPoint x="420" y="160" as="sourcePoint" />
            <mxPoint x="470" y="110" as="targetPoint" />
          </mxGeometry>
        </mxCell>
        <mxCell id="u0V1JA9TrNFjZntQZSgD-37" value="" style="endArrow=classic;html=1;rounded=0;edgeStyle=orthogonalEdgeStyle;exitX=0.5;exitY=0;exitDx=0;exitDy=0;entryX=0.5;entryY=1;entryDx=0;entryDy=0;" parent="1" source="u0V1JA9TrNFjZntQZSgD-2" target="u0V1JA9TrNFjZntQZSgD-29" edge="1">
          <mxGeometry width="50" height="50" relative="1" as="geometry">
            <mxPoint x="360" y="130" as="sourcePoint" />
            <mxPoint x="410" y="80" as="targetPoint" />
            <Array as="points">
              <mxPoint x="510" y="320" />
              <mxPoint x="590" y="320" />
            </Array>
          </mxGeometry>
        </mxCell>
        <mxCell id="u0V1JA9TrNFjZntQZSgD-39" value="" style="endArrow=classic;html=1;rounded=0;exitX=0.5;exitY=1;exitDx=0;exitDy=0;entryX=0.25;entryY=0;entryDx=0;entryDy=0;edgeStyle=orthogonalEdgeStyle;" parent="1" source="u0V1JA9TrNFjZntQZSgD-31" target="u0V1JA9TrNFjZntQZSgD-2" edge="1">
          <mxGeometry width="50" height="50" relative="1" as="geometry">
            <mxPoint x="300" y="470" as="sourcePoint" />
            <mxPoint x="350" y="420" as="targetPoint" />
            <Array as="points">
              <mxPoint x="400" y="280" />
              <mxPoint x="480" y="280" />
            </Array>
          </mxGeometry>
        </mxCell>
        <mxCell id="u0V1JA9TrNFjZntQZSgD-40" value="Команда&amp;nbsp;&lt;div&gt;на открытие двери&lt;/div&gt;" style="text;html=1;align=center;verticalAlign=middle;whiteSpace=wrap;rounded=0;rotation=0;" parent="1" vertex="1">
          <mxGeometry x="400" y="240" width="90" height="30" as="geometry" />
        </mxCell>
        <mxCell id="u0V1JA9TrNFjZntQZSgD-41" value="Телеграмм бот" style="rounded=0;whiteSpace=wrap;html=1;" parent="1" vertex="1">
          <mxGeometry x="160" y="360" width="120" height="60" as="geometry" />
        </mxCell>
        <mxCell id="u0V1JA9TrNFjZntQZSgD-42" value="" style="endArrow=classic;html=1;rounded=0;edgeStyle=orthogonalEdgeStyle;exitX=0.5;exitY=1;exitDx=0;exitDy=0;entryX=0.5;entryY=0;entryDx=0;entryDy=0;" parent="1" source="u0V1JA9TrNFjZntQZSgD-3" target="u0V1JA9TrNFjZntQZSgD-41" edge="1">
          <mxGeometry width="50" height="50" relative="1" as="geometry">
            <mxPoint x="350" y="480" as="sourcePoint" />
            <mxPoint x="400" y="430" as="targetPoint" />
          </mxGeometry>
        </mxCell>
        <mxCell id="u0V1JA9TrNFjZntQZSgD-43" value="" style="endArrow=classic;html=1;rounded=0;exitX=1;exitY=0.5;exitDx=0;exitDy=0;entryX=0;entryY=0.5;entryDx=0;entryDy=0;edgeStyle=orthogonalEdgeStyle;" parent="1" edge="1">
          <mxGeometry width="50" height="50" relative="1" as="geometry">
            <mxPoint x="280" y="370" as="sourcePoint" />
            <mxPoint x="450" y="370" as="targetPoint" />
          </mxGeometry>
        </mxCell>
        <mxCell id="u0V1JA9TrNFjZntQZSgD-45" value="Команда" style="text;html=1;align=center;verticalAlign=middle;whiteSpace=wrap;rounded=0;" parent="1" vertex="1">
          <mxGeometry x="332.5" y="350" width="60" height="20" as="geometry" />
        </mxCell>
        <mxCell id="u0V1JA9TrNFjZntQZSgD-47" value="" style="group" parent="1" vertex="1" connectable="0">
          <mxGeometry x="520" y="150" width="120" height="60" as="geometry" />
        </mxCell>
        <mxCell id="u0V1JA9TrNFjZntQZSgD-28" value="" style="rounded=0;whiteSpace=wrap;html=1;" parent="u0V1JA9TrNFjZntQZSgD-47" vertex="1">
          <mxGeometry width="120" height="60" as="geometry" />
        </mxCell>
        <mxCell id="u0V1JA9TrNFjZntQZSgD-29" value="Коды доступа" style="rounded=0;whiteSpace=wrap;html=1;" parent="u0V1JA9TrNFjZntQZSgD-47" vertex="1">
          <mxGeometry x="20" width="100" height="60" as="geometry" />
        </mxCell>
        <mxCell id="0GEpHLOyCdUX4QxZ5aWK-8" style="edgeStyle=orthogonalEdgeStyle;rounded=0;orthogonalLoop=1;jettySize=auto;html=1;exitX=0.25;exitY=0;exitDx=0;exitDy=0;entryX=0;entryY=0.75;entryDx=0;entryDy=0;" edge="1" parent="1" target="u0V1JA9TrNFjZntQZSgD-2">
          <mxGeometry relative="1" as="geometry">
            <mxPoint x="439.97" y="490" as="sourcePoint" />
            <mxPoint x="439.97" y="405" as="targetPoint" />
            <Array as="points">
              <mxPoint x="430" y="490" />
              <mxPoint x="430" y="405" />
            </Array>
          </mxGeometry>
        </mxCell>
        <mxCell id="u0V1JA9TrNFjZntQZSgD-48" value="Создание&lt;div&gt;снимка с камеры&lt;/div&gt;" style="rounded=1;whiteSpace=wrap;html=1;" parent="1" vertex="1">
          <mxGeometry x="420" y="490" width="120" height="60" as="geometry" />
        </mxCell>
        <mxCell id="u0V1JA9TrNFjZntQZSgD-50" value="Запрос на создание&amp;nbsp;&lt;div&gt;снимка&lt;/div&gt;" style="text;html=1;align=center;verticalAlign=middle;whiteSpace=wrap;rounded=0;rotation=0;" parent="1" vertex="1">
          <mxGeometry x="427.5" y="440" width="105" height="30" as="geometry" />
        </mxCell>
        <mxCell id="u0V1JA9TrNFjZntQZSgD-51" value="Снимок" style="text;html=1;align=center;verticalAlign=middle;whiteSpace=wrap;rounded=0;" parent="1" vertex="1">
          <mxGeometry x="370" y="440" width="60" height="20" as="geometry" />
        </mxCell>
        <mxCell id="u0V1JA9TrNFjZntQZSgD-55" value="Открытие/закрытие замка" style="rounded=1;whiteSpace=wrap;html=1;" parent="1" vertex="1">
          <mxGeometry x="580" y="490" width="120" height="60" as="geometry" />
        </mxCell>
        <mxCell id="u0V1JA9TrNFjZntQZSgD-57" value="Сигнал" style="text;html=1;align=center;verticalAlign=middle;whiteSpace=wrap;rounded=0;" parent="1" vertex="1">
          <mxGeometry x="555" y="430" width="60" height="20" as="geometry" />
        </mxCell>
        <mxCell id="u0V1JA9TrNFjZntQZSgD-58" style="edgeStyle=orthogonalEdgeStyle;rounded=0;orthogonalLoop=1;jettySize=auto;html=1;exitX=0.5;exitY=1;exitDx=0;exitDy=0;" parent="1" source="u0V1JA9TrNFjZntQZSgD-50" target="u0V1JA9TrNFjZntQZSgD-50" edge="1">
          <mxGeometry relative="1" as="geometry" />
        </mxCell>
        <mxCell id="0GEpHLOyCdUX4QxZ5aWK-1" value="" style="endArrow=classic;html=1;rounded=0;entryX=0.25;entryY=1;entryDx=0;entryDy=0;exitX=0.25;exitY=0;exitDx=0;exitDy=0;" edge="1" parent="1" source="u0V1JA9TrNFjZntQZSgD-41" target="u0V1JA9TrNFjZntQZSgD-3">
          <mxGeometry width="50" height="50" relative="1" as="geometry">
            <mxPoint x="80" y="400" as="sourcePoint" />
            <mxPoint x="130" y="350" as="targetPoint" />
          </mxGeometry>
        </mxCell>
        <mxCell id="0GEpHLOyCdUX4QxZ5aWK-2" value="Сообщение&amp;nbsp;&lt;div&gt;пользователю&lt;/div&gt;" style="text;html=1;align=center;verticalAlign=middle;resizable=0;points=[];autosize=1;strokeColor=none;fillColor=none;" vertex="1" parent="1">
          <mxGeometry x="110" y="313" width="100" height="40" as="geometry" />
        </mxCell>
        <mxCell id="0GEpHLOyCdUX4QxZ5aWK-3" value="" style="endArrow=classic;html=1;rounded=0;exitX=0.75;exitY=1;exitDx=0;exitDy=0;entryX=0.25;entryY=0;entryDx=0;entryDy=0;edgeStyle=orthogonalEdgeStyle;" edge="1" parent="1" source="u0V1JA9TrNFjZntQZSgD-2" target="u0V1JA9TrNFjZntQZSgD-55">
          <mxGeometry width="50" height="50" relative="1" as="geometry">
            <mxPoint x="490" y="500" as="sourcePoint" />
            <mxPoint x="540" y="450" as="targetPoint" />
            <Array as="points">
              <mxPoint x="542" y="420" />
              <mxPoint x="542" y="450" />
              <mxPoint x="610" y="450" />
            </Array>
          </mxGeometry>
        </mxCell>
        <mxCell id="0GEpHLOyCdUX4QxZ5aWK-4" value="" style="endArrow=classic;html=1;rounded=0;exitX=0;exitY=0.75;exitDx=0;exitDy=0;entryX=1;entryY=0.75;entryDx=0;entryDy=0;" edge="1" parent="1">
          <mxGeometry width="50" height="50" relative="1" as="geometry">
            <mxPoint x="450" y="389.43" as="sourcePoint" />
            <mxPoint x="280" y="389.43" as="targetPoint" />
          </mxGeometry>
        </mxCell>
        <mxCell id="0GEpHLOyCdUX4QxZ5aWK-6" value="Статус выполненой команды" style="text;html=1;align=center;verticalAlign=middle;whiteSpace=wrap;rounded=0;" vertex="1" parent="1">
          <mxGeometry x="290" y="400" width="60" height="30" as="geometry" />
        </mxCell>
        <mxCell id="0GEpHLOyCdUX4QxZ5aWK-9" value="PIN-код" style="text;html=1;align=center;verticalAlign=middle;whiteSpace=wrap;rounded=0;rotation=0;" vertex="1" parent="1">
          <mxGeometry x="282.5" y="160" width="50" height="15" as="geometry" />
        </mxCell>
        <mxCell id="0GEpHLOyCdUX4QxZ5aWK-10" value="PIN-код" style="text;html=1;align=center;verticalAlign=middle;whiteSpace=wrap;rounded=0;rotation=0;" vertex="1" parent="1">
          <mxGeometry x="460" y="160" width="50" height="15" as="geometry" />
        </mxCell>
        <mxCell id="0GEpHLOyCdUX4QxZ5aWK-11" value="PIN-код" style="text;html=1;align=center;verticalAlign=middle;whiteSpace=wrap;rounded=0;rotation=0;" vertex="1" parent="1">
          <mxGeometry x="520" y="298" width="50" height="15" as="geometry" />
        </mxCell>
      </root>
    </mxGraphModel>
  </diagram>
</mxfile>
